<?xml version="1.0" standalone="no"?>
<!DOCTYPE svg PUBLIC "-//W3C//DTD SVG 20010904//EN"
 "http://www.w3.org/TR/2001/REC-SVG-20010904/DTD/svg10.dtd">
<svg version="1.0" xmlns="http://www.w3.org/2000/svg"
 width="1278.000000pt" height="1280.000000pt" viewBox="0 0 1278.000000 1280.000000"
 preserveAspectRatio="xMidYMid meet">
<metadata>
Created by potrace 1.15, written by Peter Selinger 2001-2017
</metadata>
<g transform="translate(0.000000,1280.000000) scale(0.100000,-0.100000)"
fill="#FFF" stroke="none">
<path d="M6277 12790 c-62 -16 -118 -49 -171 -104 -74 -74 -100 -133 -104
-233 -4 -72 -1 -89 22 -139 33 -73 82 -132 135 -164 40 -24 40 -26 41 -82 l0
-57 -54 -11 c-69 -14 -140 -50 -144 -73 -3 -16 47 -46 121 -70 15 -6 17 -20
17 -109 l-1 -103 -32 -20 c-52 -33 -58 -55 -55 -208 2 -86 -1 -137 -7 -137 -5
0 -30 12 -54 25 -130 75 -370 159 -573 202 -123 26 -150 28 -353 28 -170 -1
-240 -5 -309 -18 -191 -39 -371 -112 -641 -262 -243 -135 -399 -213 -440 -221
-20 -3 -116 0 -214 8 -199 17 -226 26 -421 140 -130 75 -149 82 -223 76 -81
-7 -165 -47 -230 -109 -28 -27 -54 -49 -58 -49 -4 0 -17 16 -29 35 -23 38 -26
38 -111 -5 -59 -31 -149 -121 -149 -150 0 -79 157 -260 225 -260 9 0 23 16 32
38 20 49 41 72 67 72 28 0 147 -103 191 -164 19 -27 40 -66 45 -85 20 -71 8
-191 -19 -191 -6 0 -8 6 -6 13 6 15 -76 17 -87 2 -9 -13 -53 29 -68 66 -9 22
-19 29 -39 29 -32 0 -140 -50 -163 -77 -17 -18 -15 -23 38 -125 54 -103 104
-168 129 -168 7 0 18 -7 25 -15 11 -13 7 -15 -22 -15 -19 0 -49 -5 -65 -11
l-31 -10 -5 -372 c-5 -365 -19 -545 -47 -596 -5 -11 -26 -29 -46 -41 -40 -25
-66 -20 -110 23 -18 17 -20 26 -13 47 l9 25 -16 -22 c-13 -18 -26 -23 -61 -23
-41 0 -45 -2 -60 -37 -10 -22 -17 -66 -17 -105 -1 -58 2 -70 25 -95 l26 -28
-653 -1880 c-360 -1034 -766 -2204 -904 -2599 -137 -396 -248 -721 -247 -723
2 -2 28 63 57 144 29 82 210 582 402 1113 193 531 435 1199 538 1485 104 286
344 949 534 1474 190 525 346 960 346 966 0 7 11 10 29 7 45 -6 132 16 173 45
67 46 87 105 105 305 18 203 35 268 75 282 15 5 31 6 35 2 5 -4 7 -86 6 -181
-2 -147 -6 -181 -23 -224 -16 -41 -20 -75 -20 -166 0 -62 3 -120 6 -129 5 -13
22 -16 85 -16 l78 0 18 37 c26 56 25 264 -3 313 -16 30 -19 60 -22 203 -4 159
-3 167 16 167 52 0 77 -75 97 -294 20 -209 22 -219 56 -266 34 -47 89 -77 160
-88 l52 -7 87 -230 c48 -126 219 -574 380 -995 566 -1481 1447 -3794 1497
-3928 9 -23 17 -41 19 -39 2 2 -48 145 -112 318 -64 173 -318 868 -566 1544
-247 677 -567 1550 -710 1940 -466 1273 -518 1418 -516 1420 2 1 12 7 23 13
73 38 89 250 19 260 -11 2 -46 -10 -77 -27 -86 -45 -111 -45 -161 4 -20 19
-36 36 -36 38 0 3 -5 28 -10 58 -23 122 -32 250 -38 546 -8 353 -4 339 -88
351 l-49 8 49 24 c106 54 151 145 150 305 -1 120 -25 218 -85 336 -22 45 -38
87 -35 95 9 24 61 16 219 -35 221 -71 282 -88 387 -110 228 -46 312 -36 620
70 113 39 268 91 345 116 163 52 71 53 780 -2 l480 -36 131 -64 c179 -88 175
-83 177 -179 2 -76 4 -80 36 -106 112 -94 448 -88 539 11 19 19 22 35 22 100
l0 78 68 39 c161 94 212 115 307 123 375 34 1018 79 1055 75 25 -4 198 -58
385 -121 235 -79 365 -117 422 -125 143 -19 315 12 633 115 181 58 263 75 274
57 3 -6 -14 -52 -39 -104 -25 -51 -54 -129 -65 -172 -24 -97 -26 -231 -4 -305
25 -85 109 -164 197 -185 59 -14 16 -46 -63 -46 -15 0 -41 -5 -58 -11 l-30
-10 -5 -412 c-3 -243 -10 -436 -16 -471 -14 -71 -38 -108 -86 -131 -34 -15
-38 -15 -61 0 -14 9 -23 22 -21 28 3 7 8 21 11 32 5 15 3 14 -5 -3 -9 -16 -17
-21 -28 -16 -9 4 -40 10 -68 12 -50 4 -53 2 -63 -23 -25 -66 -3 -157 46 -192
72 -51 222 -34 289 32 45 45 61 104 75 274 18 213 39 293 83 307 40 13 47 -16
47 -200 -1 -148 -3 -176 -20 -211 -16 -32 -19 -62 -20 -157 0 -64 3 -123 6
-132 5 -12 20 -16 60 -16 36 0 54 -4 54 -12 0 -9 2 -10 8 -2 4 7 16 13 27 15
27 6 38 63 32 179 -3 67 -9 105 -22 130 -16 30 -20 64 -23 217 -4 167 -3 183
13 189 23 9 46 -6 67 -42 17 -29 24 -80 48 -327 11 -119 30 -168 80 -211 42
-35 210 -80 210 -55 0 5 9 9 20 9 34 0 88 27 100 51 16 28 16 106 0 153 -15
46 -36 47 -116 6 -32 -16 -64 -30 -70 -30 -5 0 -15 12 -22 28 l-12 27 5 -27
c7 -39 -16 -36 -59 6 -28 29 -36 46 -45 103 -23 134 -30 233 -42 550 l-13 322
-29 11 c-17 5 -45 10 -63 10 -18 0 -35 4 -38 8 -7 12 26 48 62 66 41 21 75 69
132 185 l45 93 -30 24 c-33 26 -124 64 -156 64 -11 0 -23 -10 -28 -23 -13 -34
-97 -107 -124 -107 -13 0 -34 12 -48 26 -21 22 -24 35 -24 97 0 102 33 165
133 257 109 100 135 102 174 13 14 -31 25 -43 40 -43 51 0 162 109 208 204 21
44 21 46 4 82 -21 43 -92 102 -171 140 -41 21 -58 25 -61 15 -2 -7 -14 -24
-27 -39 l-23 -26 -44 45 c-80 82 -216 133 -310 115 -19 -3 -88 -36 -153 -74
-215 -121 -224 -124 -438 -141 l-188 -14 -67 27 c-37 15 -155 76 -262 136
-548 303 -742 362 -1149 347 -265 -10 -521 -75 -790 -203 -63 -30 -116 -54
-117 -54 -2 0 -4 66 -4 146 0 80 -4 154 -10 164 -5 10 -24 27 -42 38 l-33 20
3 102 3 101 56 25 c68 30 83 41 77 59 -7 17 -88 52 -153 66 l-51 11 0 54 c0
51 2 55 38 77 54 35 110 101 141 166 21 46 26 70 25 136 0 67 -5 89 -29 137
-75 152 -252 244 -398 208z m-3617 -2820 c0 -23 30 -33 86 -28 34 3 39 6 42
31 6 53 27 22 30 -45 3 -61 1 -66 -20 -72 -35 -9 -104 -7 -132 4 -24 9 -26 14
-26 75 0 42 4 64 10 60 6 -3 10 -15 10 -25z m7260 0 c0 -30 1 -30 53 -30 56 0
77 12 77 44 0 12 4 16 9 11 15 -15 16 -154 2 -168 -13 -13 -135 -17 -163 -5
-15 6 -18 21 -18 87 0 75 4 87 33 90 4 1 7 -12 7 -29z"/>
<path d="M6288 10369 c-58 -9 -141 -53 -174 -92 l-24 -29 0 -4097 0 -4098 -51
-43 c-64 -53 -189 -200 -189 -220 0 -9 36 -57 80 -107 l79 -91 -62 -6 c-34 -3
-127 -8 -207 -11 -541 -21 -1125 -121 -1375 -234 -93 -42 -105 -58 -105 -135
l0 -63 -52 -6 c-70 -9 -170 -59 -208 -105 -52 -63 -59 -106 -60 -369 0 -131 4
-253 10 -272 18 -64 83 -113 212 -160 279 -103 758 -171 1483 -212 271 -16
1231 -16 1490 0 861 51 1372 145 1563 288 61 45 62 54 62 355 0 253 -2 276
-21 318 -42 93 -111 142 -229 162 l-71 12 3 59 c3 56 1 60 -32 91 -143 131
-804 247 -1542 272 -109 4 -198 9 -198 11 0 2 43 45 95 95 52 49 95 98 95 107
0 18 -132 151 -208 210 l-42 33 0 4106 0 4107 -32 34 c-40 41 -137 87 -198 94
-25 2 -66 1 -92 -4z"/>
<path d="M10488 8823 c-16 -2 -28 -6 -28 -8 0 -2 52 -139 115 -304 63 -165
204 -535 314 -823 110 -288 346 -908 526 -1378 179 -470 484 -1270 678 -1777
193 -507 352 -921 354 -919 2 2 -42 126 -98 277 -110 298 -1331 3634 -1616
4414 -168 461 -195 527 -211 524 -4 -1 -19 -4 -34 -6z"/>
<path d="M9437 8737 c-16 -45 -123 -352 -237 -682 -115 -330 -322 -926 -460
-1325 -455 -1310 -599 -1727 -831 -2394 -126 -362 -228 -661 -226 -663 2 -1
90 234 194 524 215 593 511 1413 943 2603 599 1654 710 1961 710 1975 0 11
-47 45 -62 45 -2 0 -16 -37 -31 -83z"/>
<path d="M2712 8312 c3 -240 11 -756 17 -1147 6 -390 16 -1009 21 -1375 6
-366 15 -919 20 -1230 6 -311 10 -674 10 -807 l0 -243 -167 0 c-346 0 -997
-25 -1343 -50 -685 -51 -1181 -139 -1256 -221 -17 -19 -17 -22 -3 -32 9 -7 28
-35 42 -63 75 -148 363 -456 577 -616 697 -520 1538 -737 2494 -642 813 81
1570 419 2095 937 131 129 227 245 269 326 28 52 28 57 13 72 -88 88 -1447
241 -2532 285 l-166 7 -6 171 c-4 94 -7 1265 -7 2601 0 1337 -4 2435 -8 2441
-4 6 -23 14 -42 18 l-35 6 7 -438z"/>
<path d="M9965 8721 l-30 -6 -6 -160 c-4 -88 -7 -1259 -8 -2602 l-1 -2443
-102 0 c-159 0 -731 -18 -953 -30 -829 -45 -1467 -141 -1571 -237 -24 -22 -24
-23 -9 -60 78 -187 397 -519 705 -735 258 -181 607 -345 936 -442 342 -100
635 -139 1034 -139 366 1 625 31 958 114 502 124 964 350 1353 663 199 160
402 380 477 518 l31 58 -22 14 c-136 86 -1672 248 -2589 273 l-238 6 0 121 c0
67 7 546 15 1066 27 1719 35 2248 45 2965 5 391 12 790 15 888 2 97 1 176 -3
176 -4 -1 -20 -4 -37 -8z"/>
<path d="M7651 3599 c-11 -34 -19 -64 -17 -66 2 -2 13 24 25 58 11 34 19 64
17 66 -2 2 -13 -24 -25 -58z"/>
<path d="M12450 3595 c0 -5 5 -17 10 -25 5 -8 10 -10 10 -5 0 6 -5 17 -10 25
-5 8 -10 11 -10 5z"/>
<path d="M336 3565 c-9 -26 -7 -32 5 -12 6 10 9 21 6 23 -2 3 -7 -2 -11 -11z"/>
</g>
</svg>
